<svg width="31" height="25" viewBox="0 0 31 25" fill="none" xmlns="http://www.w3.org/2000/svg">
<path d="M31 0.0140101C29.6506 0.955118 28.1566 1.67491 26.5755 2.14568C25.7268 1.18087 24.599 0.497038 23.3445 0.18667C22.0899 -0.123698 20.7693 -0.045627 19.5611 0.410324C18.3529 0.866275 17.3155 1.67811 16.5892 2.73602C15.8629 3.79394 15.4827 5.04689 15.5 6.32542V7.71867C13.0237 7.78216 10.57 7.23913 8.35733 6.13796C6.14468 5.03678 4.24181 3.41163 2.81818 1.40726C2.81818 1.40726 -2.81818 13.9465 9.86364 19.5195C6.96165 21.4672 3.50463 22.4438 0 22.306C12.6818 29.2722 28.1818 22.306 28.1818 6.28363C28.1805 5.89554 28.1428 5.50842 28.0691 5.12723C29.5072 3.72492 30.5221 1.9544 31 0.0140101Z" fill="white"/>
</svg>
